<svg viewBox="0 0 32 32" xmlns="http://www.w3.org/2000/svg">
  <circle cx="16" cy="16" r="16" fill="#25D366"></circle>
  <path d="M23.5 18.2c-.3-.2-1.8-.9-2.1-1-.3-.1-.5-.2-.7.2-.2.3-.8 1-.9 1.2-.2.2-.3.3-.6.1-.3-.2-1.3-.5-2.5-1.7-.9-.8-1.5-1.8-1.7-2.1-.2-.3 0-.5.1-.6.1-.1.3-.3.5-.5.2-.2.2-.3.3-.5.1-.2 0-.4 0-.6 0-.2-.7-1.7-1-2.3-.2-.5-.5-.4-.7-.4h-.6c-.2 0-.6.1-.9.4-.3.3-1.1 1.1-1.1 2.6s1.1 3 1.2 3.2c.2.2 2.1 3.2 5.1 4.5.7.3 1.2.5 1.7.6.7.2 1.3.2 1.8.1.6-.1 1.8-.7 2.1-1.3.3-.6.3-1.2.2-1.3-.1-.1-.3-.2-.6-.4z" fill="white"></path>
</svg>